<svg width="74" height="77" viewBox="0 0 74 77" fill="none" xmlns="http://www.w3.org/2000/svg">
<path d="M4.65019 0.286073C3.42055 0.695951 1.97622 1.80848 1.1955 2.96004C-0.0926894 4.91184 -0.0341353 2.55016 0.0244187 38.6L0.0829728 71.2926L0.590441 72.3857C1.31261 73.9276 2.34706 74.9815 3.84995 75.7232L5.15766 76.3673H68.0057L69.3134 75.7232C70.8163 74.9815 71.8507 73.9276 72.5729 72.3857L73.0804 71.2926V5.12654L72.4363 3.81884C71.7336 2.3745 70.5821 1.24246 69.1182 0.500771L68.2009 0.0518565L36.8744 0.0128205C9.04175 -0.0262155 5.45043 0.0128205 4.65019 0.286073ZM68.2204 1.65233C68.845 1.86703 69.5086 2.31595 70.1722 2.96004C71.9678 4.7557 71.8117 1.55474 71.8117 38.112C71.8117 74.7473 71.9483 71.6635 70.1722 73.4591C68.3765 75.2353 71.2457 75.0987 36.5817 75.0987C1.91767 75.0987 4.78682 75.2353 2.99116 73.4591C1.21502 71.6635 1.35164 74.7473 1.35164 38.112C1.35164 1.53522 1.1955 4.7557 3.01068 2.96004C4.74778 1.20342 1.742 1.35956 36.5036 1.34005C64.7852 1.32053 67.3226 1.34005 68.2204 1.65233Z" fill="black"/>
<path d="M12.516 4.6386L12.0866 4.83378L12.1256 8.87401L12.1841 12.9338L13.2967 12.9923C14.2335 13.0509 14.4287 12.9923 14.6044 12.6605C14.8191 12.2701 14.8386 12.2897 15.9121 12.7776C16.8099 13.1875 17.2003 13.2656 18.0396 13.168C20.2256 12.9533 20.9673 12.1335 20.9673 9.98654C20.9673 8.40558 20.6745 7.82004 19.5034 7.0198C18.7422 6.51233 17.1222 6.45377 15.8926 6.88317C15.4632 7.03932 15.0923 7.17594 15.0728 7.17594C15.0338 7.17594 15.0143 6.60992 15.0143 5.92679C15.0143 4.69715 15.0143 4.67763 14.4092 4.56053C13.609 4.40438 13.0625 4.4239 12.516 4.6386ZM18.0786 8.65931C18.8008 9.63521 18.0396 11.4699 16.9465 11.4699C16.2244 11.4699 15.307 11.021 15.1314 10.5916C14.7605 9.61569 15.1314 8.62027 15.9902 8.28847C16.5171 8.07377 17.8249 8.30799 18.0786 8.65931Z" fill="black"/>
<path d="M22.9971 4.58005C22.7044 4.65812 22.6848 5.12655 22.7044 8.79594L22.7239 12.9338L23.9535 12.9923C24.6562 13.0314 25.3003 12.9533 25.4564 12.8362C25.6516 12.6605 25.7297 11.7041 25.7297 8.71787L25.7492 4.83378L25.2417 4.6386C24.7538 4.44342 23.6022 4.40438 22.9971 4.58005Z" fill="black"/>
<path d="M52.8987 6.62944C52.5474 6.72703 52.04 6.94172 51.7862 7.09787C51.3763 7.37112 51.3178 7.37112 50.9274 6.98076C50.6347 6.68799 50.3614 6.5904 50.0881 6.66847C49.8539 6.72703 49.4245 6.78558 49.1513 6.78558H48.6438L48.5462 9.04967C48.4877 10.2793 48.4877 11.6846 48.5462 12.1726L48.6438 13.0509L51.4154 12.9338L51.4739 11.1771C51.5325 9.14726 51.8838 8.5422 52.9963 8.5422C53.7966 8.5422 53.8551 8.71786 53.8551 11.0795V12.9923L54.4407 13.1289C55.0848 13.2656 56.1583 13.0899 56.5486 12.7971C56.6852 12.6605 56.7828 12.075 56.7828 11.1381C56.7828 9.45955 57.1342 8.60076 57.8954 8.42509C58.8713 8.17136 59.0274 8.46413 59.086 10.8453C59.1445 12.9923 59.1445 13.0313 59.6129 13.1485C60.179 13.2851 61.4672 13.0899 61.8185 12.7971C61.9746 12.6605 62.0527 11.8798 62.0527 10.1817C62.0527 7.781 62.0527 7.76148 61.4867 7.1369C60.9207 6.51233 60.8621 6.49281 59.3592 6.49281C58.032 6.49281 57.7002 6.55136 57.1732 6.94172C56.6267 7.3516 56.5291 7.37112 56.2363 7.09787C55.9045 6.82462 54.4407 6.39522 53.8551 6.41474C53.699 6.43426 53.2696 6.51233 52.8987 6.62944Z" fill="black"/>
<path d="M29.5552 7.05883C29.0282 7.31257 28.3255 7.781 28.0133 8.11281C26.7251 9.47907 27.3496 11.7627 29.2624 12.68C30.5701 13.3241 33.4783 13.3046 34.786 12.6605C36.4255 11.8603 37.1282 10.1622 36.406 8.7569C35.9766 7.95666 34.8446 7.03931 34.0053 6.8051C32.6586 6.43426 30.6482 6.55136 29.5552 7.05883ZM33.5564 8.63979C34.0638 9.10822 34.0834 10.2988 33.5759 10.9039C33.2636 11.3138 33.0294 11.3723 31.9949 11.3723C30.9605 11.3723 30.7263 11.3138 30.414 10.9039C29.7504 10.0841 29.9846 8.91304 30.9214 8.36654C31.468 8.05425 33.0879 8.2104 33.5564 8.63979Z" fill="black"/>
<path d="M40.3291 6.86366C38.6311 7.48823 37.499 8.93257 37.7332 10.2012C37.8894 10.9624 38.5335 11.9774 39.2166 12.4848C40.3682 13.3241 43.7448 13.4217 45.2477 12.6605C46.2041 12.153 47.0043 11.1381 47.1604 10.2208C47.2971 9.32293 46.5163 7.95666 45.4233 7.2345C44.7402 6.76607 44.4084 6.68799 42.847 6.64896C41.6759 6.60992 40.8171 6.66848 40.3291 6.86366ZM44.0376 8.83498C44.6426 9.53762 44.6036 10.2012 43.9204 10.9039C42.9055 11.8993 40.9732 11.6065 40.5829 10.3769C40.134 9.06919 41.1489 8.07377 42.7299 8.22992C43.3544 8.28847 43.7253 8.44462 44.0376 8.83498Z" fill="black"/>
<path d="M18.9179 16.5641C15.229 18.2231 14.9947 23.2978 18.5275 25.2106C21.8846 27.0453 25.7492 24.7617 25.7492 20.9361C25.7492 20.214 25.6125 19.4723 25.3783 18.9843C24.9294 18.0084 23.7388 16.8569 22.7824 16.447C21.748 16.0371 19.9914 16.0762 18.9179 16.5641Z" fill="black"/>
<path d="M53.172 16.5251C52.1961 16.974 51.0445 18.1646 50.6346 19.121C50.1467 20.2921 50.2443 21.9511 50.8884 23.2002C52.8792 27.1234 58.5199 26.5964 59.9057 22.3219C60.3937 20.7995 59.8276 18.633 58.598 17.4815C57.2513 16.1933 54.792 15.7639 53.172 16.5251Z" fill="black"/>
<path d="M34.3371 19.4723C34.181 19.5894 33.7125 19.6284 33.3222 19.5504C32.4048 19.4137 31.7022 19.9993 31.8583 20.7995C31.9169 21.0923 31.8193 21.5607 31.6631 21.873C31.4094 22.361 31.4094 22.4781 31.7022 22.9075C31.8583 23.1612 32.1901 23.3759 32.4048 23.3759C32.639 23.3759 33.0294 23.5516 33.3026 23.7663C33.5759 23.981 33.9663 24.1566 34.1614 24.1566C34.4152 24.1566 34.5323 24.2933 34.5323 24.6055C34.5323 25.2692 34.4152 25.3082 33.5954 24.9178C32.6781 24.4884 31.5851 24.2933 31.2533 24.508C31.019 24.6641 31.0386 24.8007 31.3118 25.3082C31.6241 25.9523 32.5414 26.4793 33.4002 26.5183C33.654 26.5378 33.3612 26.6159 32.7757 26.694C30.98 26.9672 30.1602 28.3335 30.9019 29.7973C31.4094 30.7732 31.5851 30.7928 40.6609 30.7928H49.1122L49.2294 38.4438C49.3074 42.6402 49.366 51.9698 49.366 59.1524V72.21L50.1272 72.9712C50.8103 73.6543 50.986 73.7324 51.9033 73.7324C52.8207 73.7324 52.9963 73.6543 53.6795 72.9712L54.4407 72.21V55.1903H56.1973L56.2168 61.7678C56.2363 65.3982 56.2949 69.2628 56.3729 70.3753L56.4901 72.4052L57.2122 73.0688C57.8563 73.6348 58.0905 73.7324 58.9493 73.7324C59.8667 73.7324 60.0228 73.6543 60.7255 72.9517L61.5062 72.171L61.3305 57.2982C61.1158 36.3164 61.1158 36.2968 61.5257 35.5356C61.7014 35.1843 62.0332 34.8135 62.2479 34.6964C62.6382 34.4817 62.6382 34.5597 62.6382 41.4301C62.6382 48.964 62.6773 49.2178 63.7117 49.6862C64.9414 50.2522 66.171 49.7057 66.5418 48.398C66.698 47.9101 66.737 45.0604 66.698 39.5759L66.6394 31.4759L66.132 30.3829C65.4879 28.9971 64.4339 27.9431 63.0481 27.299L61.9551 26.7916L34.181 26.6745L34.5518 25.9718C34.7665 25.5619 34.9226 24.9178 34.9226 24.5275C34.9226 23.8443 35.352 23.1807 36.1328 22.6928C36.6988 22.3415 36.7378 21.7169 36.1913 21.0728C35.9181 20.7605 35.7034 20.3311 35.7034 20.1164C35.7034 19.3942 34.9812 19.0624 34.3371 19.4723ZM34.22 21.834C34.1614 21.9316 34.0248 21.9706 33.9272 21.8925C33.8296 21.834 33.7906 21.6974 33.8687 21.5998C33.9272 21.5022 34.0639 21.4631 34.1614 21.5412C34.259 21.5998 34.2981 21.7364 34.22 21.834Z" fill="black"/>
<path d="M13.3162 27.0063C12.4379 27.4356 12.0475 28.1578 11.2082 30.8903C10.8179 32.1785 9.66632 35.8284 8.65139 39.0098C7.63645 42.1913 6.81669 45.0995 6.81669 45.5093C6.81669 47.1879 9.04175 48.0076 10.1933 46.7195C10.408 46.4852 10.935 45.1971 11.3449 43.8503C11.7743 42.5231 12.6916 39.6539 13.3747 37.4679L14.6434 33.5253H15.3265C15.9511 33.5253 16.0097 33.5643 15.8731 33.9547C14.5849 37.9363 9.35403 54.7414 9.35403 54.9365C9.35403 55.1317 10.0372 55.1903 12.5745 55.1903H15.795V63.3878C15.795 70.3363 15.834 71.7025 16.0878 72.171C16.849 73.6543 19.0935 73.4591 19.7181 71.8392C19.8157 71.5659 19.8938 67.838 19.8938 63.2707V55.1903H21.8456V72.0148L22.4116 72.5808C22.8605 73.0297 23.1533 73.1469 23.7974 73.1469C24.4415 73.1469 24.7342 73.0297 25.1832 72.5808L25.7492 72.0148V55.1903H29.1843C32.3463 55.1903 32.6 55.1708 32.5024 54.839C32.4439 54.6633 30.98 49.979 29.2624 44.4554C27.5448 38.9318 26.081 34.2084 26.0224 33.9547C25.9248 33.5838 25.9834 33.5253 26.4909 33.5253C27.0178 33.5253 27.1154 33.6229 27.3887 34.4426C30.1017 42.9134 31.1166 45.9973 31.3313 46.4267C31.8388 47.4221 33.654 47.6563 34.4152 46.8366C35.2935 45.8411 35.313 45.8997 32.3853 36.8433C30.8824 32.1785 29.4966 28.1383 29.3015 27.865C28.4622 26.733 28.228 26.694 20.7721 26.694C14.9167 26.694 13.8432 26.7525 13.3162 27.0063Z" fill="black"/>
</svg>
